<svg width="13" height="13" viewBox="0 0 13 13" fill="none" xmlns="http://www.w3.org/2000/svg">
<path d="M10.8333 1.08337H7.58331C7.44121 1.08397 7.30504 1.14039 7.20414 1.24046L1.62498 6.79796C1.52425 6.89857 1.44435 7.01805 1.38983 7.14956C1.33531 7.28108 1.30725 7.42205 1.30725 7.56442C1.30725 7.70678 1.33531 7.84775 1.38983 7.97927C1.44435 8.11078 1.52425 8.23026 1.62498 8.33087L4.66914 11.375C4.87138 11.5785 5.14604 11.6934 5.43289 11.6946C5.57585 11.6947 5.71741 11.6666 5.84942 11.6117C5.98143 11.5569 6.10128 11.4764 6.20206 11.375L11.7596 5.79587C11.8596 5.69498 11.916 5.55881 11.9166 5.41671V2.16671C11.9166 1.87939 11.8025 1.60384 11.5993 1.40067C11.3962 1.19751 11.1206 1.08337 10.8333 1.08337ZM8.93748 4.87504C8.77678 4.87504 8.61969 4.82739 8.48608 4.73811C8.35246 4.64883 8.24832 4.52194 8.18683 4.37347C8.12533 4.22501 8.10924 4.06164 8.14059 3.90403C8.17194 3.74642 8.24932 3.60165 8.36295 3.48802C8.47658 3.37439 8.62136 3.297 8.77897 3.26565C8.93658 3.2343 9.09994 3.25039 9.24841 3.31189C9.39687 3.37338 9.52377 3.47752 9.61305 3.61114C9.70232 3.74475 9.74998 3.90184 9.74998 4.06254C9.74998 4.27803 9.66438 4.48469 9.512 4.63706C9.35963 4.78944 9.15297 4.87504 8.93748 4.87504Z" fill="#231F20"/>
</svg>
