<svg width="17" height="14" viewBox="0 0 17 14" fill="none" xmlns="http://www.w3.org/2000/svg">
<g clip-path="url(#clip0_22_121)">
<path d="M12.2246 11.3996L11.3996 12.2246L9.04834 9.87333C8.065 10.8448 6.71369 11.4444 5.22222 11.4444C3.4864 11.4444 1.94108 10.6322 0.944445 9.36801V10.6667H-0.222221L-0.222214 7.16667H3.21073V8.33333H1.6361C2.39975 9.50451 3.72118 10.2778 5.22222 10.2778C7.5848 10.2778 9.5 8.36258 9.5 6H10.6667C10.6667 7.0934 10.3444 8.11159 9.78949 8.96458L12.2246 11.3996Z" fill="white" stroke="white" stroke-width="0.000213333"/>
<path fill-rule="evenodd" clip-rule="evenodd" d="M9.5 2.24308V0.944465H10.6667V4.44446H7.23371V3.2778H8.80832C8.0447 2.10659 6.72326 1.33335 5.22222 1.33335C2.85968 1.33335 0.944453 3.24858 0.944453 5.61113H-0.222214C-0.222214 2.60425 2.21534 0.166687 5.22222 0.166687C6.95807 0.166687 8.50336 0.978928 9.5 2.24308Z" fill="white" stroke="white" stroke-width="0.000213333"/>
</g>
<defs>
<clipPath id="clip0_22_121">
<rect width="17" height="14" fill="white"/>
</clipPath>
</defs>
</svg>
