<svg width="15" height="20" viewBox="0 0 15 20" fill="none" xmlns="http://www.w3.org/2000/svg">
<path fill-rule="evenodd" clip-rule="evenodd" d="M7.27545 0.0307208C7.65952 0.134562 7.92628 0.483013 7.92628 0.880888V7.04567H13.2104C13.5257 7.04567 13.817 7.21427 13.974 7.48772C14.1311 7.76116 14.13 8.09767 13.9711 8.37006L7.80633 18.9383C7.6058 19.282 7.1998 19.4485 6.81574 19.3447C6.43167 19.2409 6.16491 18.8924 6.16491 18.4946V12.3298H0.880813C0.565467 12.3298 0.274199 12.1611 0.117138 11.8877C-0.0399231 11.6142 -0.038796 11.2777 0.120097 11.0053L6.28486 0.437138C6.48539 0.0934605 6.89139 -0.0731126 7.27545 0.0307208ZM2.41412 10.5684H7.04559C7.53199 10.5684 7.92628 10.9627 7.92628 11.4491V15.2369L11.6771 8.80706H7.04559C6.55919 8.80706 6.16491 8.41278 6.16491 7.92635V4.13846L2.41412 10.5684Z" fill="white" stroke="white" stroke-width="0.000258065"/>
</svg>
