<svg width="11" height="13" viewBox="0 0 11 13" fill="none" xmlns="http://www.w3.org/2000/svg">
<g clip-path="url(#clip0_22_130)">
<path d="M9.16667 2.64815L8.67723 10.3601C8.63439 11.0356 8.61294 11.3733 8.47409 11.6294C8.35181 11.8549 8.16738 12.0361 7.94512 12.1493C7.69267 12.2778 7.37043 12.2778 6.72601 12.2778H4.27397C3.62955 12.2778 3.30735 12.2778 3.05488 12.1493C2.8326 12.0361 2.64818 11.8549 2.52592 11.6294C2.38704 11.3733 2.36561 11.0356 2.32275 10.3601L1.83333 2.64815M0.611111 2.64815H10.3889M7.94444 2.64815L7.77908 2.12692C7.61878 1.6218 7.53861 1.36924 7.38998 1.18251C7.25872 1.01762 7.09017 0.88999 6.89975 0.811322C6.68409 0.722229 6.43072 0.722229 5.92387 0.722229H5.07613C4.56928 0.722229 4.31591 0.722229 4.10026 0.811322C3.90984 0.88999 3.74127 1.01762 3.61001 1.18251C3.46136 1.36924 3.38123 1.6218 3.22095 2.12692L3.05556 2.64815" stroke="white" stroke-width="1.42933" stroke-linecap="round" stroke-linejoin="round"/>
</g>
<defs>
<clipPath id="clip0_22_130">
<rect width="11" height="13" fill="white"/>
</clipPath>
</defs>
</svg>
